<?xml version="1.0" encoding="UTF-8"?>
<svg id="Layer_2" data-name="Layer 2" xmlns="http://www.w3.org/2000/svg" viewBox="0 0 258.73 217.8">
    <defs>
        <style>
            .cls-1 {
                fill: #2e539d;
            }

            .cls-1,
            .cls-2 {
                stroke-width: 0px;
            }

            .cls-2 {
                fill: #b09417;
            }
        </style>
    </defs>
    <g id="Layer_1-2" data-name="Layer 1">
        <g>
            <g>
                <path class="cls-2"
                    d="M16.45,26.32L40.63,3.26c.57-.54,1.31-.86,2.09-.91L83.63,0c.86-.05,1.71.24,2.36.8l18.27,15.88c1.55,1.35,3.94.97,5-.79l.91-1.51c.64-1.06,1.82-1.68,3.06-1.6l27.66,1.88c1.01.07,1.93.59,2.5,1.43l40.06,58.32c.57.83,1.48,1.35,2.48,1.42l9.48.71c2.44.18,3.84,2.86,2.61,4.97l-29.23,49.89c-.39.66-.53,1.44-.41,2.2l3.46,21.46c.2,1.23-.31,2.47-1.33,3.21l-16.48,11.9c-.61.44-1.06,1.08-1.25,1.81l-4.43,16.33c-.19.71-.61,1.33-1.2,1.77l-35.92,27.06c-1.56,1.18-3.8.75-4.81-.93l-13.62-22.47c-.25-.42-.41-.89-.46-1.38l-6.19-60.85c-.06-.62-.3-1.21-.68-1.7l-11.74-15.03c-.59-.75-.82-1.72-.64-2.65l1.06-5.55c.4-2.1-1.27-4.02-3.4-3.92l-40.42,1.86c-.95.04-1.88-.33-2.54-1.02L.92,75.44c-.64-.67-.97-1.58-.91-2.51l1.95-28.97c.05-.72.33-1.4.81-1.95l13.48-15.47c.07-.08.14-.15.21-.22Z" />
                <path class="cls-2"
                    d="M185.34,165.72l-12.21,7.16c-.67.39-1.18,1.01-1.44,1.75l-2.01,5.67c-.26.74-.25,1.54.02,2.27l.86,2.27c.41,1.07.23,2.28-.47,3.19l-2.77,3.59c-.56.72-.79,1.64-.65,2.55l1.3,8.02c.24,1.51,1.49,2.66,3.02,2.77l7.16.52c1.39.1,2.7-.68,3.26-1.96l11.94-27.02c.3-.68.36-1.45.17-2.17l-2.16-8.25c-.64-2.45-3.68-3.3-5.5-1.54h0" />
            </g>
            <g>
                <path class="cls-1"
                    d="M193.1,119.6c3.6-23.72-11.07-45.49-33.84-48.06l.32,8.82c-18.77-.87-30.84,13.22-40.32,30.37,4.17,11.42,7.23,23.21,9.12,35.17,15.95,14.03,48.5,13.18,61.56-5.54l-11.89-7.61c-4.5,5.95-13.24,9.12-21.07,9.04-15.69,0-25.52-9.04-27.74-22.19h63.86ZM129.24,107.24c4.14-29.14,45.9-30.66,49.28,0h-49.28Z" />
                <path class="cls-1"
                    d="M232.58,106.92c-9.19-1.9-20.28-2.54-20.28-11.57,0-6.66,5.87-11.09,13.79-11.09,9.04,0,13.79,4.75,15.21,9.19l13.47-3.65c-2.85-11.88-14.42-18.54-27.41-18.54-17.43,0-29.64,10.45-29.64,25.19.17,32.17,45.57,16.86,46.12,34.39,0,7.13-5.87,11.41-16.32,11.41-13,0-17.28-5.7-18.55-9.82l-14.1,4.75c3.17,12.05,16.48,18.38,32.33,18.38,21.4,0,31.54-11.88,31.54-26.15,0-12.03-6.49-18.38-26.15-22.5Z" />
                <path class="cls-1"
                    d="M154.91,76c-18.73,1.12-31.24,16.94-40.6,34.38,5.08,13.42,8.6,27.51,10.41,41.77l-14.01,1.77c-1.07-8.43-2.78-16.75-5.1-24.89-7.72,19.6-11.75,40.56-11.81,61.73-2.68,0-11.31-.03-14.12-.04.07-28.07,6.63-55.96,19.11-81.12-10.74-24.42-33.36-64.17-62.92-61.99l-1.23-14.08c34.25-2.68,58.38,32.41,72.7,60.77,10.81-17.69,27.39-31.68,47.07-32.41.15,4.19.35,9.92.51,14.11Z" />
                <path class="cls-1"
                    d="M123.42,54.76c1.38,8.86-6.15,16.39-15.01,15.01-16.94-3.43-13.12-27.82,4.13-25.83,5.51.83,10.02,5.32,10.87,10.82Z" />
            </g>
        </g>
    </g>
</svg>